<mxfile host="app.diagrams.net" modified="2024-05-14T02:11:47.883Z" agent="Mozilla/5.0 (Windows NT 10.0; Win64; x64) AppleWebKit/537.36 (KHTML, like Gecko) Chrome/124.0.0.0 Safari/537.36" etag="c_WCZ0LjsE1mkQn7FxxY" version="24.4.0" type="device">
  <diagram name="EXERCISE-1" id="7WXvErT6jwQCl5LBhXy7">
    <mxGraphModel dx="978" dy="531" grid="1" gridSize="10" guides="1" tooltips="1" connect="1" arrows="1" fold="1" page="1" pageScale="1" pageWidth="850" pageHeight="1100" math="0" shadow="0">
      <root>
        <mxCell id="0" />
        <mxCell id="1" parent="0" />
        <mxCell id="-hOMn0kYKFU-R9jvK8EN-38" value="EXERCISE 18 AND 19 P2" style="text;html=1;align=center;verticalAlign=middle;resizable=0;points=[];autosize=1;strokeColor=none;fillColor=none;" parent="1" vertex="1">
          <mxGeometry x="290" width="160" height="30" as="geometry" />
        </mxCell>
        <mxCell id="jAzLcmatW34AS9ptDqRP-906" style="edgeStyle=orthogonalEdgeStyle;rounded=0;orthogonalLoop=1;jettySize=auto;html=1;exitX=0;exitY=0.5;exitDx=0;exitDy=0;entryX=0;entryY=0.5;entryDx=0;entryDy=0;" edge="1" parent="1" source="jAzLcmatW34AS9ptDqRP-907">
          <mxGeometry relative="1" as="geometry">
            <mxPoint x="302.5" y="1310" as="targetPoint" />
            <Array as="points">
              <mxPoint x="-180" y="2250" />
              <mxPoint x="-180" y="1310" />
            </Array>
          </mxGeometry>
        </mxCell>
        <mxCell id="jAzLcmatW34AS9ptDqRP-1104" style="edgeStyle=orthogonalEdgeStyle;rounded=0;orthogonalLoop=1;jettySize=auto;html=1;exitX=0;exitY=0.5;exitDx=0;exitDy=0;entryX=0;entryY=0.5;entryDx=0;entryDy=0;" edge="1" parent="1">
          <mxGeometry relative="1" as="geometry">
            <mxPoint x="772.5" y="1390" as="targetPoint" />
            <Array as="points">
              <mxPoint x="290" y="2330" />
              <mxPoint x="290" y="1390" />
            </Array>
          </mxGeometry>
        </mxCell>
        <mxCell id="jAzLcmatW34AS9ptDqRP-1277" value="" style="edgeStyle=orthogonalEdgeStyle;rounded=0;orthogonalLoop=1;jettySize=auto;html=1;" edge="1" parent="1" source="jAzLcmatW34AS9ptDqRP-1278" target="jAzLcmatW34AS9ptDqRP-1280">
          <mxGeometry relative="1" as="geometry" />
        </mxCell>
        <mxCell id="jAzLcmatW34AS9ptDqRP-1278" value="INICIO" style="ellipse;whiteSpace=wrap;html=1;" vertex="1" parent="1">
          <mxGeometry x="330" y="30" width="80" height="80" as="geometry" />
        </mxCell>
        <mxCell id="jAzLcmatW34AS9ptDqRP-1279" value="" style="edgeStyle=orthogonalEdgeStyle;rounded=0;orthogonalLoop=1;jettySize=auto;html=1;" edge="1" parent="1" source="jAzLcmatW34AS9ptDqRP-1280" target="jAzLcmatW34AS9ptDqRP-1282">
          <mxGeometry relative="1" as="geometry" />
        </mxCell>
        <mxCell id="jAzLcmatW34AS9ptDqRP-1280" value="INPUT&lt;div&gt;debut, fin&lt;/div&gt;" style="shape=parallelogram;perimeter=parallelogramPerimeter;whiteSpace=wrap;html=1;fixedSize=1;" vertex="1" parent="1">
          <mxGeometry x="310" y="140" width="120" height="60" as="geometry" />
        </mxCell>
        <mxCell id="jAzLcmatW34AS9ptDqRP-1281" value="" style="edgeStyle=orthogonalEdgeStyle;rounded=0;orthogonalLoop=1;jettySize=auto;html=1;" edge="1" parent="1" source="jAzLcmatW34AS9ptDqRP-1282" target="jAzLcmatW34AS9ptDqRP-1285">
          <mxGeometry relative="1" as="geometry" />
        </mxCell>
        <mxCell id="jAzLcmatW34AS9ptDqRP-1282" value="i = 0&lt;div&gt;debut1 = debut&lt;/div&gt;" style="whiteSpace=wrap;html=1;" vertex="1" parent="1">
          <mxGeometry x="310" y="230" width="120" height="60" as="geometry" />
        </mxCell>
        <mxCell id="jAzLcmatW34AS9ptDqRP-1283" value="" style="edgeStyle=orthogonalEdgeStyle;rounded=0;orthogonalLoop=1;jettySize=auto;html=1;" edge="1" parent="1" source="jAzLcmatW34AS9ptDqRP-1285" target="jAzLcmatW34AS9ptDqRP-1288">
          <mxGeometry relative="1" as="geometry" />
        </mxCell>
        <mxCell id="jAzLcmatW34AS9ptDqRP-1284" value="" style="edgeStyle=orthogonalEdgeStyle;rounded=0;orthogonalLoop=1;jettySize=auto;html=1;" edge="1" parent="1" source="jAzLcmatW34AS9ptDqRP-1285" target="jAzLcmatW34AS9ptDqRP-1291">
          <mxGeometry relative="1" as="geometry" />
        </mxCell>
        <mxCell id="jAzLcmatW34AS9ptDqRP-1285" value="fin &amp;gt;=debut" style="rhombus;whiteSpace=wrap;html=1;fillColor=#fff2cc;strokeColor=#d6b656;" vertex="1" parent="1">
          <mxGeometry x="330" y="360" width="80" height="80" as="geometry" />
        </mxCell>
        <mxCell id="jAzLcmatW34AS9ptDqRP-1286" value="NO" style="text;html=1;align=center;verticalAlign=middle;resizable=0;points=[];autosize=1;strokeColor=none;fillColor=none;" vertex="1" parent="1">
          <mxGeometry x="400" y="360" width="40" height="30" as="geometry" />
        </mxCell>
        <mxCell id="jAzLcmatW34AS9ptDqRP-1287" value="" style="edgeStyle=orthogonalEdgeStyle;rounded=0;orthogonalLoop=1;jettySize=auto;html=1;" edge="1" parent="1" source="jAzLcmatW34AS9ptDqRP-1288" target="jAzLcmatW34AS9ptDqRP-1331">
          <mxGeometry relative="1" as="geometry" />
        </mxCell>
        <mxCell id="jAzLcmatW34AS9ptDqRP-1288" value="OUTPUT&lt;div&gt;&quot;El numero de fin no debe&amp;nbsp;&lt;/div&gt;&lt;div&gt;de ser menor al inicial&quot;&lt;/div&gt;" style="shape=parallelogram;perimeter=parallelogramPerimeter;whiteSpace=wrap;html=1;fixedSize=1;" vertex="1" parent="1">
          <mxGeometry x="440" y="370" width="180" height="60" as="geometry" />
        </mxCell>
        <mxCell id="jAzLcmatW34AS9ptDqRP-1289" value="" style="edgeStyle=orthogonalEdgeStyle;rounded=0;orthogonalLoop=1;jettySize=auto;html=1;" edge="1" parent="1" source="jAzLcmatW34AS9ptDqRP-1291" target="jAzLcmatW34AS9ptDqRP-1295">
          <mxGeometry relative="1" as="geometry" />
        </mxCell>
        <mxCell id="jAzLcmatW34AS9ptDqRP-1290" value="" style="edgeStyle=orthogonalEdgeStyle;rounded=0;orthogonalLoop=1;jettySize=auto;html=1;" edge="1" parent="1" source="jAzLcmatW34AS9ptDqRP-1291" target="jAzLcmatW34AS9ptDqRP-1298">
          <mxGeometry relative="1" as="geometry" />
        </mxCell>
        <mxCell id="jAzLcmatW34AS9ptDqRP-1291" value="debut &amp;gt; 0 and&lt;div&gt;fin &amp;gt; 0&lt;/div&gt;" style="rhombus;whiteSpace=wrap;html=1;fillColor=#fff2cc;strokeColor=#d6b656;" vertex="1" parent="1">
          <mxGeometry x="310" y="490" width="120" height="90" as="geometry" />
        </mxCell>
        <mxCell id="jAzLcmatW34AS9ptDqRP-1292" value="SI" style="text;html=1;align=center;verticalAlign=middle;resizable=0;points=[];autosize=1;strokeColor=none;fillColor=none;" vertex="1" parent="1">
          <mxGeometry x="375" y="448" width="30" height="30" as="geometry" />
        </mxCell>
        <mxCell id="jAzLcmatW34AS9ptDqRP-1293" value="NO" style="text;html=1;align=center;verticalAlign=middle;resizable=0;points=[];autosize=1;strokeColor=none;fillColor=none;" vertex="1" parent="1">
          <mxGeometry x="420" y="500" width="40" height="30" as="geometry" />
        </mxCell>
        <mxCell id="jAzLcmatW34AS9ptDqRP-1294" value="" style="edgeStyle=orthogonalEdgeStyle;rounded=0;orthogonalLoop=1;jettySize=auto;html=1;" edge="1" parent="1" source="jAzLcmatW34AS9ptDqRP-1295" target="jAzLcmatW34AS9ptDqRP-1332">
          <mxGeometry relative="1" as="geometry" />
        </mxCell>
        <mxCell id="jAzLcmatW34AS9ptDqRP-1295" value="OUTPUT&lt;div&gt;&quot;El numero debe de ser&amp;nbsp;&lt;/div&gt;&lt;div&gt;positivo y mayor a zero&quot;&lt;/div&gt;" style="shape=parallelogram;perimeter=parallelogramPerimeter;whiteSpace=wrap;html=1;fixedSize=1;" vertex="1" parent="1">
          <mxGeometry x="460" y="505" width="180" height="60" as="geometry" />
        </mxCell>
        <mxCell id="jAzLcmatW34AS9ptDqRP-1296" value="" style="edgeStyle=orthogonalEdgeStyle;rounded=0;orthogonalLoop=1;jettySize=auto;html=1;" edge="1" parent="1" source="jAzLcmatW34AS9ptDqRP-1298" target="jAzLcmatW34AS9ptDqRP-1300">
          <mxGeometry relative="1" as="geometry" />
        </mxCell>
        <mxCell id="jAzLcmatW34AS9ptDqRP-1297" value="" style="edgeStyle=orthogonalEdgeStyle;rounded=0;orthogonalLoop=1;jettySize=auto;html=1;" edge="1" parent="1" source="jAzLcmatW34AS9ptDqRP-1298" target="jAzLcmatW34AS9ptDqRP-1305">
          <mxGeometry relative="1" as="geometry" />
        </mxCell>
        <mxCell id="jAzLcmatW34AS9ptDqRP-1298" value="debut &amp;lt;= fin" style="rhombus;whiteSpace=wrap;html=1;fillColor=#fff2cc;strokeColor=#d6b656;" vertex="1" parent="1">
          <mxGeometry x="330" y="630" width="80" height="80" as="geometry" />
        </mxCell>
        <mxCell id="jAzLcmatW34AS9ptDqRP-1299" value="SI" style="text;html=1;align=center;verticalAlign=middle;resizable=0;points=[];autosize=1;strokeColor=none;fillColor=none;" vertex="1" parent="1">
          <mxGeometry x="375" y="578" width="30" height="30" as="geometry" />
        </mxCell>
        <mxCell id="jAzLcmatW34AS9ptDqRP-1300" value="FIN" style="ellipse;whiteSpace=wrap;html=1;" vertex="1" parent="1">
          <mxGeometry x="450" y="630" width="80" height="80" as="geometry" />
        </mxCell>
        <mxCell id="jAzLcmatW34AS9ptDqRP-1301" value="NO" style="text;html=1;align=center;verticalAlign=middle;resizable=0;points=[];autosize=1;strokeColor=none;fillColor=none;" vertex="1" parent="1">
          <mxGeometry x="400" y="638" width="40" height="30" as="geometry" />
        </mxCell>
        <mxCell id="jAzLcmatW34AS9ptDqRP-1302" value="SI" style="text;html=1;align=center;verticalAlign=middle;resizable=0;points=[];autosize=1;strokeColor=none;fillColor=none;" vertex="1" parent="1">
          <mxGeometry x="385" y="698" width="30" height="30" as="geometry" />
        </mxCell>
        <mxCell id="jAzLcmatW34AS9ptDqRP-1303" value="" style="edgeStyle=orthogonalEdgeStyle;rounded=0;orthogonalLoop=1;jettySize=auto;html=1;" edge="1" parent="1" source="jAzLcmatW34AS9ptDqRP-1305" target="jAzLcmatW34AS9ptDqRP-1307">
          <mxGeometry relative="1" as="geometry" />
        </mxCell>
        <mxCell id="jAzLcmatW34AS9ptDqRP-1304" value="" style="edgeStyle=orthogonalEdgeStyle;rounded=0;orthogonalLoop=1;jettySize=auto;html=1;" edge="1" parent="1" source="jAzLcmatW34AS9ptDqRP-1305" target="jAzLcmatW34AS9ptDqRP-1315">
          <mxGeometry relative="1" as="geometry" />
        </mxCell>
        <mxCell id="jAzLcmatW34AS9ptDqRP-1305" value="debut1 != 0" style="rhombus;whiteSpace=wrap;html=1;fillColor=#fff2cc;strokeColor=#d6b656;" vertex="1" parent="1">
          <mxGeometry x="330" y="750" width="80" height="80" as="geometry" />
        </mxCell>
        <mxCell id="jAzLcmatW34AS9ptDqRP-1306" style="edgeStyle=orthogonalEdgeStyle;rounded=0;orthogonalLoop=1;jettySize=auto;html=1;entryX=0;entryY=0.5;entryDx=0;entryDy=0;" edge="1" parent="1" source="jAzLcmatW34AS9ptDqRP-1307" target="jAzLcmatW34AS9ptDqRP-1309">
          <mxGeometry relative="1" as="geometry">
            <Array as="points">
              <mxPoint x="130" y="790" />
              <mxPoint x="130" y="670" />
            </Array>
          </mxGeometry>
        </mxCell>
        <mxCell id="jAzLcmatW34AS9ptDqRP-1307" value="OUTPUT&lt;div&gt;debut, &quot;-&amp;gt;&quot;, i&lt;/div&gt;" style="shape=parallelogram;perimeter=parallelogramPerimeter;whiteSpace=wrap;html=1;fixedSize=1;" vertex="1" parent="1">
          <mxGeometry x="150" y="760" width="120" height="60" as="geometry" />
        </mxCell>
        <mxCell id="jAzLcmatW34AS9ptDqRP-1308" style="edgeStyle=orthogonalEdgeStyle;rounded=0;orthogonalLoop=1;jettySize=auto;html=1;entryX=0;entryY=0.5;entryDx=0;entryDy=0;" edge="1" parent="1" source="jAzLcmatW34AS9ptDqRP-1309" target="jAzLcmatW34AS9ptDqRP-1298">
          <mxGeometry relative="1" as="geometry" />
        </mxCell>
        <mxCell id="jAzLcmatW34AS9ptDqRP-1309" value="++debut" style="whiteSpace=wrap;html=1;" vertex="1" parent="1">
          <mxGeometry x="190" y="652.5" width="70" height="35" as="geometry" />
        </mxCell>
        <mxCell id="jAzLcmatW34AS9ptDqRP-1310" value="NO" style="text;html=1;align=center;verticalAlign=middle;resizable=0;points=[];autosize=1;strokeColor=none;fillColor=none;" vertex="1" parent="1">
          <mxGeometry x="290" y="760" width="40" height="30" as="geometry" />
        </mxCell>
        <mxCell id="jAzLcmatW34AS9ptDqRP-1311" value="SI" style="text;html=1;align=center;verticalAlign=middle;resizable=0;points=[];autosize=1;strokeColor=none;fillColor=none;" vertex="1" parent="1">
          <mxGeometry x="340" y="840" width="30" height="30" as="geometry" />
        </mxCell>
        <mxCell id="jAzLcmatW34AS9ptDqRP-1312" value="" style="edgeStyle=orthogonalEdgeStyle;rounded=0;orthogonalLoop=1;jettySize=auto;html=1;entryX=0;entryY=0.5;entryDx=0;entryDy=0;" edge="1" parent="1" target="jAzLcmatW34AS9ptDqRP-1317">
          <mxGeometry relative="1" as="geometry">
            <mxPoint x="477.5" y="944.5" as="sourcePoint" />
            <mxPoint x="630" y="944.5" as="targetPoint" />
            <Array as="points" />
          </mxGeometry>
        </mxCell>
        <mxCell id="jAzLcmatW34AS9ptDqRP-1313" style="edgeStyle=orthogonalEdgeStyle;rounded=0;orthogonalLoop=1;jettySize=auto;html=1;entryX=0;entryY=0.5;entryDx=0;entryDy=0;" edge="1" parent="1" source="jAzLcmatW34AS9ptDqRP-1315" target="jAzLcmatW34AS9ptDqRP-1317">
          <mxGeometry relative="1" as="geometry" />
        </mxCell>
        <mxCell id="jAzLcmatW34AS9ptDqRP-1314" value="" style="edgeStyle=orthogonalEdgeStyle;rounded=0;orthogonalLoop=1;jettySize=auto;html=1;" edge="1" parent="1" source="jAzLcmatW34AS9ptDqRP-1315" target="jAzLcmatW34AS9ptDqRP-1323">
          <mxGeometry relative="1" as="geometry" />
        </mxCell>
        <mxCell id="jAzLcmatW34AS9ptDqRP-1315" value="debut1%3 == 0" style="rhombus;whiteSpace=wrap;html=1;fillColor=#fff2cc;strokeColor=#d6b656;" vertex="1" parent="1">
          <mxGeometry x="317.5" y="900" width="105" height="90" as="geometry" />
        </mxCell>
        <mxCell id="jAzLcmatW34AS9ptDqRP-1316" style="edgeStyle=orthogonalEdgeStyle;rounded=0;orthogonalLoop=1;jettySize=auto;html=1;entryX=1;entryY=0.5;entryDx=0;entryDy=0;" edge="1" parent="1" source="jAzLcmatW34AS9ptDqRP-1320" target="jAzLcmatW34AS9ptDqRP-1305">
          <mxGeometry relative="1" as="geometry">
            <Array as="points" />
          </mxGeometry>
        </mxCell>
        <mxCell id="jAzLcmatW34AS9ptDqRP-1317" value="debut1 += 4" style="whiteSpace=wrap;html=1;" vertex="1" parent="1">
          <mxGeometry x="470" y="922.5" width="95" height="45" as="geometry" />
        </mxCell>
        <mxCell id="jAzLcmatW34AS9ptDqRP-1318" value="SI" style="text;html=1;align=center;verticalAlign=middle;resizable=0;points=[];autosize=1;strokeColor=none;fillColor=none;" vertex="1" parent="1">
          <mxGeometry x="420" y="910" width="30" height="30" as="geometry" />
        </mxCell>
        <mxCell id="jAzLcmatW34AS9ptDqRP-1319" value="" style="edgeStyle=orthogonalEdgeStyle;rounded=0;orthogonalLoop=1;jettySize=auto;html=1;entryX=1;entryY=0.5;entryDx=0;entryDy=0;" edge="1" parent="1" source="jAzLcmatW34AS9ptDqRP-1317" target="jAzLcmatW34AS9ptDqRP-1320">
          <mxGeometry relative="1" as="geometry">
            <mxPoint x="510" y="923" as="sourcePoint" />
            <mxPoint x="410" y="790" as="targetPoint" />
            <Array as="points">
              <mxPoint x="610" y="945" />
              <mxPoint x="610" y="790" />
            </Array>
          </mxGeometry>
        </mxCell>
        <mxCell id="jAzLcmatW34AS9ptDqRP-1320" value="++i" style="whiteSpace=wrap;html=1;" vertex="1" parent="1">
          <mxGeometry x="480" y="775" width="60" height="30" as="geometry" />
        </mxCell>
        <mxCell id="jAzLcmatW34AS9ptDqRP-1321" value="" style="edgeStyle=orthogonalEdgeStyle;rounded=0;orthogonalLoop=1;jettySize=auto;html=1;" edge="1" parent="1" source="jAzLcmatW34AS9ptDqRP-1323" target="jAzLcmatW34AS9ptDqRP-1325">
          <mxGeometry relative="1" as="geometry" />
        </mxCell>
        <mxCell id="jAzLcmatW34AS9ptDqRP-1322" value="" style="edgeStyle=orthogonalEdgeStyle;rounded=0;orthogonalLoop=1;jettySize=auto;html=1;" edge="1" parent="1" source="jAzLcmatW34AS9ptDqRP-1323" target="jAzLcmatW34AS9ptDqRP-1328">
          <mxGeometry relative="1" as="geometry" />
        </mxCell>
        <mxCell id="jAzLcmatW34AS9ptDqRP-1323" value="debut1%4 == 0" style="rhombus;whiteSpace=wrap;html=1;fillColor=#fff2cc;strokeColor=#d6b656;" vertex="1" parent="1">
          <mxGeometry x="315" y="1060" width="110" height="80" as="geometry" />
        </mxCell>
        <mxCell id="jAzLcmatW34AS9ptDqRP-1324" value="NO" style="text;html=1;align=center;verticalAlign=middle;resizable=0;points=[];autosize=1;strokeColor=none;fillColor=none;" vertex="1" parent="1">
          <mxGeometry x="370" y="1000" width="40" height="30" as="geometry" />
        </mxCell>
        <mxCell id="jAzLcmatW34AS9ptDqRP-1325" value="debut1 /=2" style="whiteSpace=wrap;html=1;" vertex="1" parent="1">
          <mxGeometry x="460" y="1080" width="80" height="40" as="geometry" />
        </mxCell>
        <mxCell id="jAzLcmatW34AS9ptDqRP-1326" value="" style="endArrow=none;html=1;rounded=0;" edge="1" parent="1">
          <mxGeometry width="50" height="50" relative="1" as="geometry">
            <mxPoint x="540" y="1100" as="sourcePoint" />
            <mxPoint x="610" y="940" as="targetPoint" />
            <Array as="points">
              <mxPoint x="610" y="1100" />
            </Array>
          </mxGeometry>
        </mxCell>
        <mxCell id="jAzLcmatW34AS9ptDqRP-1327" value="SI" style="text;html=1;align=center;verticalAlign=middle;resizable=0;points=[];autosize=1;strokeColor=none;fillColor=none;" vertex="1" parent="1">
          <mxGeometry x="415" y="1060" width="30" height="30" as="geometry" />
        </mxCell>
        <mxCell id="jAzLcmatW34AS9ptDqRP-1328" value="--debut" style="whiteSpace=wrap;html=1;" vertex="1" parent="1">
          <mxGeometry x="330" y="1200" width="80" height="40" as="geometry" />
        </mxCell>
        <mxCell id="jAzLcmatW34AS9ptDqRP-1329" value="NO" style="text;html=1;align=center;verticalAlign=middle;resizable=0;points=[];autosize=1;strokeColor=none;fillColor=none;" vertex="1" parent="1">
          <mxGeometry x="370" y="1138" width="40" height="30" as="geometry" />
        </mxCell>
        <mxCell id="jAzLcmatW34AS9ptDqRP-1330" value="" style="endArrow=none;html=1;rounded=0;" edge="1" parent="1">
          <mxGeometry width="50" height="50" relative="1" as="geometry">
            <mxPoint x="410" y="1218" as="sourcePoint" />
            <mxPoint x="610" y="1100" as="targetPoint" />
            <Array as="points">
              <mxPoint x="610" y="1218" />
            </Array>
          </mxGeometry>
        </mxCell>
        <mxCell id="jAzLcmatW34AS9ptDqRP-1331" value="FIN" style="ellipse;whiteSpace=wrap;html=1;" vertex="1" parent="1">
          <mxGeometry x="650" y="360" width="80" height="80" as="geometry" />
        </mxCell>
        <mxCell id="jAzLcmatW34AS9ptDqRP-1332" value="FIN" style="ellipse;whiteSpace=wrap;html=1;" vertex="1" parent="1">
          <mxGeometry x="660" y="495" width="80" height="80" as="geometry" />
        </mxCell>
      </root>
    </mxGraphModel>
  </diagram>
</mxfile>
